<?xml version="1.0" encoding="UTF-8"?>
<!DOCTYPE svg PUBLIC "-//W3C//DTD SVG 1.1//EN" "http://www.w3.org/Graphics/SVG/1.1/DTD/svg11.dtd">
<!-- Creator: CorelDRAW -->
<svg xmlns="http://www.w3.org/2000/svg" xml:space="preserve" width="295px" height="295px" version="1.1" shape-rendering="geometricPrecision" text-rendering="geometricPrecision" image-rendering="optimizeQuality" fill-rule="evenodd" clip-rule="evenodd"
viewBox="0 0 301.62 301.62"
 xmlns:xlink="http://www.w3.org/1999/xlink"
 xmlns:xodm="http://www.corel.com/coreldraw/odm/2003">
 <g id="Camada_x0020_1">
  <metadata id="CorelCorpID_0Corel-Layer"/>
  <g id="_2802440350912">
   <path fill="#3B82F6" d="M150.81 0c83.29,0 150.81,67.52 150.81,150.81 0,83.29 -67.52,150.81 -150.81,150.81 -83.29,0 -150.81,-67.52 -150.81,-150.81 0,-83.29 67.52,-150.81 150.81,-150.81zm71.61 79.2l-143.22 0c-13.18,0 -23.87,10.68 -23.87,23.87l0 95.48c0,13.18 10.69,23.87 23.87,23.87l143.22 0c13.18,0 23.87,-10.68 23.87,-23.87l0 -95.48c0,-13.19 -10.68,-23.87 -23.87,-23.87zm-39.29 63.7l50.53 -43.3c0.35,1.12 0.7,2.23 0.7,3.47l0 95.48c0,0.83 -0.32,1.57 -0.48,2.35l-50.75 -58 0 0zm39.29 -51.77c0.79,0 1.49,0.31 2.24,0.46l-73.85 63.3 -73.85 -63.3c0.75,-0.15 1.44,-0.46 2.24,-0.46l143.22 0zm-154.69 109.75c-0.16,-0.78 -0.47,-1.5 -0.47,-2.33l0 -95.48c0,-1.24 0.36,-2.36 0.71,-3.48l50.51 43.29 -50.75 58 0 0zm11.47 9.6c-1.21,0 -2.31,-0.34 -3.41,-0.68l51.75 -59.15 19.39 16.61c1.11,0.97 2.5,1.45 3.88,1.45 1.38,0 2.77,-0.48 3.88,-1.45l19.38 -16.6 51.75 59.14c-1.09,0.33 -2.19,0.68 -3.4,0.68l-143.23 0 0.01 0z"/>
  </g>
 </g>
</svg>
