<?xml version="1.0" encoding="UTF-8"?>
<!DOCTYPE svg PUBLIC "-//W3C//DTD SVG 1.1//EN" "http://www.w3.org/Graphics/SVG/1.1/DTD/svg11.dtd">
<!-- Creator: CorelDRAW -->
<svg xmlns="http://www.w3.org/2000/svg" xml:space="preserve" width="295px" height="295px" version="1.1" shape-rendering="geometricPrecision" text-rendering="geometricPrecision" image-rendering="optimizeQuality" fill-rule="evenodd" clip-rule="evenodd"
viewBox="0 0 95.45 95.45"
 xmlns:xlink="http://www.w3.org/1999/xlink"
 xmlns:xodm="http://www.corel.com/coreldraw/odm/2003">
 <g id="Camada_x0020_1">
  <metadata id="CorelCorpID_0Corel-Layer"/>
  <g id="_2802438324544">
   <path fill="#3B82F6" d="M47.72 0c26.36,0 47.73,21.37 47.73,47.72 0,26.36 -21.37,47.73 -47.73,47.73 -26.35,0 -47.72,-21.37 -47.72,-47.73 0,-26.35 21.37,-47.72 47.72,-47.72zm-20.22 22.21c-3.91,0 -6.47,2.57 -6.47,5.95 0,3.3 2.48,5.95 6.32,5.95l0.08 0c3.99,0 6.47,-2.65 6.47,-5.95 -0.07,-3.38 -2.48,-5.95 -6.4,-5.95zm46.92 31.28l0 19.74 -11.45 0 0 -18.42c0,-4.62 -1.65,-7.78 -5.79,-7.78 -3.17,0 -5.05,2.13 -5.88,4.19 -0.3,0.73 -0.37,1.75 -0.37,2.79l0 19.22 -11.45 0c0,0 0.15,-31.2 0,-34.42l11.45 0 0 4.87c-0.03,0.04 -0.06,0.08 -0.08,0.12l0.08 0 0 -0.12c1.52,-2.34 4.23,-5.68 10.31,-5.68 7.54,0 13.18,4.92 13.18,15.49l0 0zm-52.71 19.74l11.44 0 0 -34.42 -11.44 0 0 34.42z"/>
  </g>
 </g>
</svg>
