<?xml version="1.0" encoding="UTF-8"?>
<!DOCTYPE svg PUBLIC "-//W3C//DTD SVG 1.1//EN" "http://www.w3.org/Graphics/SVG/1.1/DTD/svg11.dtd">
<!-- Creator: CorelDRAW -->
<svg xmlns="http://www.w3.org/2000/svg" xml:space="preserve" width="295px" height="295px" version="1.1" shape-rendering="geometricPrecision" text-rendering="geometricPrecision" image-rendering="optimizeQuality" fill-rule="evenodd" clip-rule="evenodd"
viewBox="0 0 264.15 264.15"
 xmlns:xlink="http://www.w3.org/1999/xlink"
 xmlns:xodm="http://www.corel.com/coreldraw/odm/2003">
 <g id="Camada_x0020_1">
  <metadata id="CorelCorpID_0Corel-Layer"/>
  <path fill="#3B82F6" d="M132.07 0c72.95,0 132.08,59.13 132.08,132.07 0,72.95 -59.13,132.08 -132.08,132.08 -72.94,0 -132.07,-59.13 -132.07,-132.08 0,-72.94 59.13,-132.07 132.07,-132.07zm0 21.26c30.6,0 58.31,12.4 78.36,32.45 20.05,20.06 32.46,47.76 32.46,78.36 0,30.6 -12.41,58.3 -32.46,78.36 -20.05,20.05 -47.76,32.46 -78.36,32.46 -30.6,0 -58.3,-12.41 -78.36,-32.46 -20.05,-20.05 -32.45,-47.76 -32.45,-78.36 0,-30.6 12.4,-58.3 32.45,-78.36 20.06,-20.05 47.76,-32.45 78.36,-32.45zm71.75 39.05c-18.35,-18.36 -43.73,-29.71 -71.75,-29.71 -28.02,0 -53.39,11.35 -71.75,29.71 -18.37,18.37 -29.72,43.74 -29.72,71.76 0,28.02 11.35,53.4 29.72,71.75 18.36,18.37 43.73,29.73 71.75,29.73 28.02,0 53.4,-11.36 71.75,-29.73 18.37,-18.35 29.73,-43.73 29.73,-71.75 0,-28.02 -11.36,-53.39 -29.73,-71.76zm-47.8 10.8l15.39 0 0 121.91 -18.57 0 0 -58.98 -20.77 55.69 -20.94 -56.5 0 59.62 -18.4 0 0 -121.74 15.4 0 23.94 65.32 23.95 -65.32z"/>
 </g>
</svg>
